<?xml version="1.0" standalone="no"?>
<!DOCTYPE svg PUBLIC "-//W3C//DTD SVG 20010904//EN"
 "http://www.w3.org/TR/2001/REC-SVG-20010904/DTD/svg10.dtd">
<svg version="1.0" xmlns="http://www.w3.org/2000/svg"
 width="640.000000pt" height="640.000000pt" viewBox="0 0 640.000000 640.000000"
 preserveAspectRatio="xMidYMid meet">

<g transform="translate(0.000000,640.000000) scale(0.100000,-0.100000)"
fill="#000000" stroke="none">
<path d="M4344 6201 c-98 -60 -124 -201 -58 -308 l31 -49 -28 -55 c-16 -29
-48 -112 -71 -184 -23 -71 -44 -132 -45 -134 -2 -3 -16 5 -31 17 -153 122
-257 185 -397 240 -55 22 -124 55 -152 75 -75 51 -174 72 -338 72 -154 -1
-197 -11 -259 -66 -25 -22 -62 -45 -82 -50 -56 -16 -177 -75 -262 -127 -42
-27 -82 -52 -89 -55 -8 -5 -22 10 -39 40 -15 27 -48 75 -72 107 -44 58 -44 60
-28 87 21 35 20 124 -2 169 -36 74 -138 104 -208 61 -69 -42 -115 -145 -100
-225 16 -84 108 -141 189 -116 21 6 40 10 42 8 13 -16 60 -156 68 -205 l11
-62 -52 -54 c-65 -69 -103 -130 -133 -210 -13 -37 -39 -80 -64 -108 -52 -55
-80 -129 -96 -245 -18 -139 1 -276 50 -360 13 -21 24 -68 30 -128 6 -52 16
-107 22 -123 23 -62 85 -106 210 -148 73 -25 428 -110 502 -120 43 -6 47 -8
47 -35 0 -34 -13 -40 -92 -40 -49 0 -102 14 -267 69 -308 104 -275 100 -379
45 -48 -26 -105 -59 -127 -73 -22 -14 -101 -55 -177 -93 -130 -64 -236 -102
-488 -174 -150 -42 -146 -40 -156 -77 -5 -18 -9 -214 -10 -437 0 -348 -3 -416
-18 -485 -37 -167 -20 -530 30 -626 18 -35 61 -66 125 -88 46 -17 54 -25 86
-82 84 -152 314 -418 498 -576 39 -34 124 -100 190 -148 118 -86 120 -88 127
-134 3 -25 7 -62 7 -82 1 -35 -1 -37 -37 -43 -49 -7 -221 -95 -339 -171 -86
-56 -93 -64 -122 -125 -16 -36 -35 -83 -42 -105 -6 -22 -18 -52 -26 -67 -7
-15 -16 -56 -20 -90 -5 -55 -3 -65 15 -82 38 -34 270 -76 422 -76 94 0 167 14
593 114 296 70 367 93 368 123 2 79 -3 387 -7 398 -3 8 -14 17 -24 20 -17 6
-19 22 -22 211 l-3 205 -42 40 c-23 21 -51 39 -63 39 -24 0 -24 -6 -4 82 14
62 23 79 66 125 l50 52 107 -6 c124 -6 253 13 340 53 29 13 57 21 62 18 5 -3
9 -20 9 -37 1 -18 7 -61 15 -97 12 -60 12 -67 -4 -95 -10 -16 -21 -49 -25 -73
-5 -32 -16 -51 -46 -78 -48 -44 -50 -63 -20 -249 38 -237 60 -441 60 -556 l0
-117 38 -33 c77 -69 222 -166 276 -186 31 -11 86 -15 224 -14 290 0 447 24
472 72 12 21 -2 135 -20 170 -7 12 -19 54 -27 93 -18 89 -96 248 -145 298 -42
42 -48 69 -83 353 -19 152 -36 213 -70 245 -14 13 -25 32 -25 43 0 10 -14 32
-30 49 -42 42 -48 55 -74 175 l-24 107 34 35 c57 60 78 114 82 218 l4 92 -52
113 c-29 62 -60 121 -68 130 -13 15 -11 22 12 62 14 24 26 52 26 60 0 12 11
16 47 16 41 0 50 4 84 41 20 22 53 71 72 107 32 61 100 247 109 297 3 16 10
19 33 16 17 -1 42 -9 57 -17 15 -8 40 -14 55 -15 24 0 36 -13 81 -81 l53 -80
-26 -51 c-14 -28 -25 -56 -25 -63 0 -7 -24 -26 -54 -43 -84 -49 -90 -63 -83
-205 6 -126 46 -367 71 -427 8 -20 33 -51 55 -71 l40 -35 -22 -20 c-12 -10
-34 -27 -49 -36 -40 -25 -59 -59 -79 -145 -22 -92 -24 -210 -5 -257 23 -54 86
-78 140 -54 27 13 76 95 76 129 0 28 50 76 117 112 l50 28 63 -63 62 -62 -6
-50 c-3 -27 -6 -65 -6 -82 0 -25 -12 -46 -50 -89 -78 -85 -86 -119 -41 -165
95 -95 307 42 372 239 12 37 26 73 31 79 11 13 -5 119 -44 306 -11 54 -19 99
-17 100 2 1 26 13 54 27 43 22 52 32 68 75 43 114 87 388 87 536 0 108 -73
245 -156 294 -38 23 -55 26 -95 23 -27 -3 -58 -13 -69 -23 -19 -18 -50 -15
-50 5 0 6 -16 35 -35 65 -23 37 -41 55 -55 55 -18 0 -20 5 -14 53 5 48 2 57
-39 128 -39 68 -42 78 -30 95 10 13 13 33 9 61 -5 36 -1 49 29 95 20 29 43 72
52 96 16 42 15 45 -5 88 -33 67 -123 184 -225 291 -158 166 -325 257 -467 256
-71 0 -108 -14 -165 -64 l-35 -31 -26 21 c-32 26 -110 27 -284 7 -86 -10 -117
-11 -122 -2 -12 18 -9 26 10 33 9 3 41 17 70 30 61 27 99 36 232 58 52 9 115
22 140 30 81 27 148 112 168 215 6 30 15 39 59 60 92 44 125 92 165 236 32
117 32 335 -1 416 -31 79 -90 148 -153 178 -41 20 -55 33 -64 60 -29 81 -4
330 48 485 l24 69 65 1 c44 0 73 6 91 17 40 26 78 112 78 175 0 155 -167 290
-276 224z m124 -45 c31 -16 74 -61 91 -94 7 -12 12 -50 12 -83 1 -70 -21 -114
-69 -142 -44 -26 -87 -10 -144 51 -78 83 -85 187 -18 254 32 32 83 38 128 14z
m-2135 -147 c97 -53 83 -200 -25 -254 -48 -23 -76 -19 -114 19 -30 30 -34 40
-34 88 0 64 30 116 82 141 39 20 62 21 91 6z m1068 -188 c31 -5 76 -15 100
-21 l44 -12 -57 -18 c-78 -24 -131 -58 -207 -129 -35 -34 -67 -61 -72 -61 -10
0 16 76 37 108 8 13 33 41 55 63 51 51 31 51 -24 -1 -45 -40 -87 -110 -89
-146 -2 -19 -10 -22 -93 -28 -49 -3 -109 -9 -133 -12 l-42 -7 14 39 c35 100
78 175 109 191 72 38 236 54 358 34z m278 -118 c161 -64 223 -96 318 -164 133
-97 208 -175 248 -262 19 -42 35 -78 35 -80 0 -3 -12 -7 -27 -10 -36 -8 -98
-59 -128 -107 -13 -21 -34 -71 -47 -111 -31 -101 -34 -353 -4 -439 38 -111 85
-172 153 -195 21 -8 38 -17 37 -22 -11 -80 -66 -168 -125 -198 -33 -17 9 -17
-979 -13 l-715 3 -75 27 c-53 20 -86 39 -112 67 -47 50 -51 87 -45 442 4 263
6 279 34 394 34 134 61 202 99 249 58 71 223 231 279 270 54 39 229 133 291
157 l24 9 -16 -38 c-24 -54 -38 -117 -30 -137 6 -16 16 -17 89 -10 45 4 117 6
159 6 l78 -1 82 76 c87 79 118 99 183 120 60 19 69 18 194 -33z m666 -572 c10
-18 -13 -21 -46 -6 l-34 14 37 1 c20 0 39 -4 43 -9z m75 -43 c64 -69 90 -210
71 -385 -27 -247 -113 -371 -184 -265 -47 72 -60 127 -60 257 -1 171 40 312
111 388 31 33 36 33 62 5z m-2249 -129 c-6 -18 -12 -44 -12 -58 -1 -19 -3 -21
-6 -7 -5 20 17 110 25 102 2 -3 -1 -19 -7 -37z m2138 -576 c2 -2 -5 -3 -17 -3
-14 0 -22 6 -22 16 0 14 3 15 18 3 9 -7 19 -15 21 -16z m-1779 -477 c74 -25
187 -63 250 -86 168 -60 304 -89 603 -130 124 -17 126 -18 131 -53 21 -130 12
-380 -25 -712 -62 -561 -144 -852 -316 -1120 -61 -94 -216 -277 -308 -363
-137 -128 -480 -372 -523 -372 -24 0 -110 52 -192 117 -8 6 -51 39 -95 74
-213 164 -478 473 -574 666 -127 257 -177 582 -188 1228 -3 190 -1 355 4 374
8 32 12 34 98 56 244 64 538 183 696 281 19 12 74 43 122 68 l86 45 48 -14
c26 -8 109 -35 183 -59z m1872 15 c143 -37 219 -88 381 -258 77 -80 167 -193
167 -208 0 -17 -227 -125 -264 -125 -65 0 -154 56 -261 164 -144 145 -235 285
-235 361 0 33 30 65 70 75 53 12 61 12 142 -9z m-341 -61 c23 -19 23 -21 6
-31 -50 -30 -89 -77 -125 -152 -58 -119 -67 -169 -66 -342 1 -127 5 -165 28
-250 70 -270 227 -445 358 -401 47 17 49 7 12 -66 -79 -155 -109 -170 -229
-110 -100 50 -282 186 -323 241 l-20 27 23 50 c87 191 88 193 97 329 5 72 12
175 16 230 5 55 5 111 1 125 l-7 25 -1 -25 c-1 -14 -10 -119 -20 -235 -20
-222 -22 -230 -97 -395 -34 -73 -40 -80 -78 -93 -86 -30 -110 -37 -113 -34 -1
2 2 68 8 148 l10 144 31 25 c60 48 118 114 130 150 7 19 13 67 13 105 0 58 -5
78 -29 121 -15 29 -48 66 -72 84 -41 31 -44 37 -50 93 -9 76 -25 92 -100 101
-92 11 -485 77 -508 86 -35 13 56 19 369 25 160 4 337 11 395 17 313 32 313
32 341 8z m137 -125 c49 -100 227 -304 321 -369 22 -15 64 -38 94 -50 l55 -22
-50 -60 c-66 -79 -79 -107 -77 -157 3 -54 -2 -62 -54 -89 -64 -33 -110 -29
-201 16 -60 30 -86 49 -110 83 -67 96 -109 260 -109 433 -1 99 3 125 25 188
15 40 34 85 44 100 l17 26 10 -24 c6 -14 21 -47 35 -75z m-573 -306 c26 -38
30 -53 30 -109 -1 -42 -7 -77 -18 -97 -19 -36 -76 -98 -83 -91 -2 3 0 36 6 74
5 38 10 116 10 172 0 117 6 123 55 51z m1339 -25 c20 -8 21 -24 1 -24 -8 0
-15 -9 -15 -20 0 -11 -7 -37 -15 -58 -13 -29 -18 -34 -25 -22 -8 13 -10 13
-10 -1 0 -18 -50 -41 -158 -75 -60 -18 -86 -32 -117 -64 -21 -22 -43 -40 -48
-40 -13 0 33 71 88 134 41 48 70 68 165 116 136 69 115 61 134 54z m-1273
-675 c9 -18 7 -27 -10 -50 -12 -16 -26 -40 -31 -54 -11 -28 -51 -49 -116 -59
l-40 -7 9 71 c11 78 16 83 97 106 65 18 78 17 91 -7z m1607 -79 c80 -57 122
-151 122 -269 0 -98 -57 -458 -75 -479 -2 -2 -21 8 -43 21 -43 28 -185 80
-244 91 -37 7 -38 8 -38 49 0 23 7 121 15 217 27 306 21 275 71 318 46 38 120
82 140 82 6 0 30 -13 52 -30z m-3964 -455 c14 -55 28 -110 32 -122 6 -21 4
-22 -25 -17 -22 5 -31 3 -31 -7 0 -9 -3 -10 -11 -2 -32 32 -59 325 -44 478 l8
80 23 -155 c12 -85 34 -200 48 -255z m3702 390 c-22 -17 -66 -20 -66 -6 0 5
12 12 28 14 54 8 58 7 38 -8z m-97 -9 c-5 -5 -197 -46 -213 -46 -23 1 61 31
109 39 57 10 110 13 104 7z m80 -103 c0 -38 -8 -151 -17 -253 l-17 -184 -45
-8 c-135 -24 -220 -43 -265 -59 -63 -24 -62 -24 -69 9 -37 193 -48 270 -49
356 l-2 101 113 37 c100 34 250 64 325 67 27 1 27 1 26 -66z m-1106 -178 c42
-15 86 -34 96 -43 11 -10 43 -64 72 -121 47 -93 53 -110 52 -166 -1 -67 -43
-182 -63 -170 -5 3 -7 0 -4 -8 14 -37 -22 -24 -78 29 -72 66 -109 84 -173 84
-79 0 -164 -60 -222 -158 -26 -44 -66 -72 -104 -72 -43 0 -149 78 -149 110 0
5 11 12 25 16 20 5 57 34 43 34 -9 0 -153 -38 -170 -45 -25 -10 -23 -5 18 65
50 85 95 188 133 300 35 107 50 122 158 160 85 30 257 23 366 -15z m-2527
-282 c20 -20 6 -28 -32 -19 -21 6 -24 9 -14 21 16 19 25 19 46 -2z m3761 -61
c50 -17 111 -44 137 -60 l47 -30 -27 -21 c-33 -26 -28 -26 -121 5 -102 35
-262 43 -378 21 -44 -8 -87 -18 -95 -21 -21 -8 -88 50 -74 64 16 16 117 49
202 65 107 20 200 13 309 -23z m-249 -181 c2 -23 0 -31 -8 -26 -9 5 -10 1 -6
-12 4 -12 1 -25 -7 -31 -9 -8 -13 -30 -11 -67 3 -49 1 -55 -17 -55 -11 0 -33
-10 -49 -22 -26 -19 -33 -20 -57 -9 -27 12 -27 12 -9 -7 17 -20 17 -21 -1 -30
-13 -7 -26 -4 -48 12 -32 22 -34 28 -20 59 5 12 15 17 26 14 11 -3 22 0 26 5
3 6 1 8 -5 4 -6 -3 -13 -2 -17 3 -3 5 1 14 10 18 13 8 13 11 1 28 -14 20 -15
19 -45 -9 -17 -16 -28 -33 -25 -37 3 -5 -2 -6 -10 -3 -8 3 -19 -3 -26 -15 -13
-26 -45 -29 -35 -3 4 9 11 31 16 48 5 18 25 44 47 60 20 15 47 40 59 55 17 19
29 26 45 22 18 -4 20 -2 9 5 -12 9 -9 12 15 17 16 4 34 8 39 10 6 2 30 3 55 2
43 -2 45 -3 48 -36z m244 6 c4 -7 4 -15 -1 -20 -4 -4 -3 -42 1 -85 5 -42 8
-96 6 -119 -2 -22 0 -39 5 -36 4 2 7 -19 7 -46 0 -44 -3 -51 -20 -51 -11 0
-20 6 -20 13 0 8 -4 7 -10 -3 -6 -10 -10 -11 -10 -2 0 6 -6 12 -12 13 -7 0
-39 31 -72 67 l-58 67 4 104 c6 128 9 131 105 119 37 -5 71 -15 75 -21z
m-1815 -61 c15 -19 46 -44 67 -57 l39 -23 -26 -7 c-99 -26 -315 -34 -305 -10
13 29 76 100 89 101 9 0 32 7 50 15 48 20 54 19 86 -19z m1890 -27 c-3 -10 -1
-17 3 -14 5 3 11 -8 15 -25 14 -63 32 -205 28 -216 -2 -7 0 -15 6 -19 6 -3 11
-13 11 -21 0 -10 -12 -14 -40 -14 -22 0 -40 5 -40 11 0 5 4 8 9 4 16 -9 22 13
8 27 -9 8 -11 21 -6 33 11 28 11 43 0 26 -7 -11 -11 -6 -16 20 -13 68 -21 190
-13 195 4 3 8 -14 8 -37 0 -23 3 -39 7 -36 3 4 6 33 5 65 -2 45 0 53 9 39 6
-10 9 -27 6 -38z m-530 -59 c-13 -21 -27 -26 -27 -10 0 6 5 10 10 10 6 0 10 7
10 16 0 8 4 12 10 9 6 -4 5 -13 -3 -25z m-54 -55 c4 -8 3 -16 -1 -19 -4 -3 -9
4 -9 15 -2 23 3 25 10 4z m-33 -95 c-11 -8 -9 -9 10 -5 15 4 33 0 45 -10 19
-15 19 -15 1 -13 -10 2 -23 -6 -30 -17 -6 -11 -17 -24 -23 -28 -7 -4 -13 -19
-13 -33 0 -14 4 -22 10 -19 6 3 10 1 10 -4 0 -6 -7 -11 -16 -11 -9 0 -13 -5
-9 -12 4 -7 -3 -2 -14 11 -17 18 -21 37 -21 87 l0 64 33 0 c25 0 29 -3 17 -10z
m-550 -27 c4 -4 13 -105 19 -223 10 -187 10 -216 -3 -226 -24 -17 -325 -47
-341 -34 -8 6 -21 43 -30 81 -22 97 -57 338 -50 349 26 42 373 88 405 53z
m617 -50 c-3 -10 -5 -4 -5 12 0 17 2 24 5 18 2 -7 2 -21 0 -30z m-580 -25 c-3
-7 -5 -2 -5 12 0 14 2 19 5 13 2 -7 2 -19 0 -25z m1070 26 c-3 -3 -12 -4 -19
-1 -8 3 -5 6 6 6 11 1 17 -2 13 -5z m-1060 -131 c-2 -16 -4 -3 -4 27 0 30 2
43 4 28 2 -16 2 -40 0 -55z m993 57 c0 -5 -4 -10 -10 -10 -5 0 -10 5 -10 10 0
6 5 10 10 10 6 0 10 -4 10 -10z m165 0 c-3 -5 -12 -7 -20 -3 -21 7 -19 13 6
13 11 0 18 -4 14 -10z m-1075 -66 l22 -35 -20 -19 c-20 -19 -21 -19 -27 -1 -5
17 -4 91 1 91 1 0 12 -16 24 -36z m-1305 6 c60 -12 95 -32 95 -55 0 -17 -204
-105 -242 -105 -9 0 -9 94 1 130 7 27 47 52 71 45 8 -2 42 -9 75 -15z m742
-47 c-2 -16 -4 -5 -4 22 0 28 2 40 4 28 2 -13 2 -35 0 -50z m-31 -51 c6 -37 4
-42 -10 -36 -9 3 -16 10 -16 16 0 5 6 6 13 2 9 -6 9 -5 1 7 -13 16 -16 75 -3
62 4 -4 11 -27 15 -51z m527 -22 c3 -44 2 -67 -3 -55 -8 19 -14 143 -6 134 2
-2 6 -38 9 -79z m-1437 -17 c-12 -161 -15 -172 -48 -189 -16 -9 -32 -13 -34
-11 -3 2 9 10 26 17 16 7 30 17 30 22 0 5 -4 6 -10 3 -6 -4 -10 33 -10 104 0
61 3 110 8 110 20 -3 32 2 32 16 0 8 3 15 6 15 4 0 3 -39 0 -87z m884 72 c0
-2 -10 -10 -22 -16 -21 -11 -22 -11 -9 4 13 16 31 23 31 12z m684 -195 c10
-80 20 -164 23 -188 l6 -42 -49 21 c-41 19 -60 21 -138 16 -85 -5 -88 -4 -51
8 l40 13 -35 2 c-25 2 -13 6 40 14 l75 11 7 40 c4 22 7 86 7 143 -1 95 1 104
23 122 21 17 24 17 29 2 4 -9 14 -82 23 -162z m-617 148 c-3 -8 -6 -5 -6 6 -1
11 2 17 5 13 3 -3 4 -12 1 -19z m-627 -187 l0 -198 -118 -32 c-140 -37 -153
-38 -178 -10 -27 30 -95 58 -199 80 -49 11 -97 23 -105 26 -8 4 -24 7 -35 7
-24 1 -42 66 -18 66 8 0 17 -9 20 -20 4 -14 14 -20 34 -20 19 0 29 -5 29 -15
0 -11 11 -15 39 -15 22 0 67 -9 100 -19 52 -16 125 -19 140 -5 2 1 6 61 9 132
l5 129 77 17 c43 10 102 31 131 46 30 15 57 29 62 29 4 1 7 -88 7 -198z m2020
189 c-11 -7 -11 -10 -2 -10 7 0 11 -4 7 -10 -3 -5 -13 -6 -23 -3 -13 5 -12 2
4 -13 23 -21 22 -46 -2 -37 -8 3 -14 0 -14 -7 0 -15 -42 -9 -47 7 -5 15 61 83
79 83 9 0 9 -3 -2 -10z m-2427 -92 c-3 -51 -9 -97 -13 -101 -6 -7 -196 16
-239 29 -8 3 18 23 60 47 41 23 99 59 129 79 30 21 58 38 61 38 4 0 4 -42 2
-92z m2454 57 c0 -8 -4 -12 -9 -9 -5 3 -6 10 -3 15 9 13 12 11 12 -6z m-1466
-34 c20 -7 28 -19 33 -51 3 -22 17 -69 30 -103 13 -34 27 -75 31 -91 l6 -29
62 7 c34 3 76 2 92 -3 17 -5 24 -10 18 -10 -7 -1 -13 -5 -13 -10 0 -5 10 -7
23 -5 12 2 -15 -8 -59 -24 -55 -18 -95 -40 -123 -65 -34 -31 -45 -36 -61 -27
-29 16 -36 34 -54 160 -10 63 -24 148 -32 189 -19 100 -19 109 4 88 9 -8 29
-20 43 -26z m105 -130 l15 -34 87 7 c48 4 105 9 127 11 l40 5 -35 -10 c-19 -5
-78 -12 -131 -16 -95 -7 -97 -6 -112 17 -14 23 -38 117 -36 142 1 7 8 -10 15
-38 8 -27 22 -65 30 -84z m424 14 c-7 -8 -17 -15 -22 -15 -11 0 14 29 26 30 5
0 3 -7 -4 -15z m-170 -151 c0 -2 -15 -4 -32 -3 -27 0 -29 2 -13 8 18 8 45 4
45 -5z m-1579 -23 c138 -29 251 -60 279 -78 14 -9 46 -37 71 -62 45 -44 47
-50 54 -116 3 -39 7 -78 8 -89 2 -17 -22 -24 -213 -63 -228 -46 -317 -63 -337
-63 -9 0 -13 21 -13 73 0 90 -10 104 -104 148 -53 25 -85 32 -151 37 -47 2
-82 9 -79 14 19 31 344 218 379 218 7 0 55 -9 106 -19z m1881 -45 c53 -26 105
-82 149 -166 22 -40 38 -75 36 -77 -2 -2 -22 3 -44 11 -115 41 -335 27 -443
-27 -73 -36 -77 -44 -79 -156 -1 -53 -3 -62 -15 -52 -7 6 -56 35 -108 64 -60
33 -94 58 -93 67 1 8 5 56 9 105 9 111 33 152 110 190 121 58 392 82 478 41z
m-1192 -128 c-3 -58 -8 -109 -11 -113 -4 -3 -57 -19 -118 -34 l-111 -29 -5 22
c-2 11 -6 49 -8 82 -3 34 -12 72 -21 86 l-16 24 113 29 c61 15 126 34 142 41
17 7 32 10 35 6 3 -4 3 -55 0 -114z m576 -27 c-3 -20 -6 -55 -6 -78 0 -67 -15
-50 -27 30 -6 39 -14 80 -18 89 -6 16 -4 17 25 6 30 -10 32 -13 26 -47z
m-1545 -69 c90 -35 93 -39 97 -127 l4 -78 -28 6 c-16 3 -94 15 -174 27 -212
32 -193 25 -187 69 2 21 14 59 26 86 l21 47 92 -4 c62 -3 112 -12 149 -26z
m2337 -41 c21 -11 42 -82 42 -141 0 -27 -3 -29 -52 -34 -42 -5 -450 -26 -506
-26 -16 0 -5 151 12 162 35 24 132 51 206 56 101 8 269 -2 298 -17z m-1364
-33 c10 -39 7 -47 -22 -62 -28 -15 -192 -49 -199 -42 -2 2 -6 19 -9 38 l-6 34
88 19 c49 10 98 22 109 26 30 12 32 11 39 -13z m-264 -103 c0 -18 -11 -23 -77
-39 -43 -10 -150 -35 -238 -56 -88 -21 -184 -42 -214 -46 -54 -7 -54 -7 -48
17 4 13 7 34 7 47 0 17 6 22 25 22 27 0 389 72 470 93 43 12 52 11 63 -2 6 -8
12 -24 12 -36z m1064 -138 c4 -22 4 -42 1 -45 -9 -9 -63 23 -145 86 -58 44
-76 64 -78 86 l-4 28 110 -58 c107 -56 110 -59 116 -97z m-1914 114 c69 -11
151 -23 183 -26 l57 -7 0 -49 c0 -58 11 -55 -170 -38 -118 11 -236 32 -248 44
-4 3 -7 29 -8 56 l-1 49 31 -5 c17 -3 87 -14 156 -24z m2565 -65 c11 -59 3
-80 -35 -92 -44 -15 -493 -39 -542 -30 -35 6 -36 8 -40 56 -3 47 -2 49 27 55
16 3 138 10 270 15 132 6 254 14 270 19 44 14 44 14 50 -23z"/>
<path d="M3030 5486 c-223 -26 -386 -70 -555 -151 -140 -67 -172 -110 -200
-273 -34 -194 -5 -346 73 -381 37 -17 144 -13 347 16 176 24 220 26 587 28
l398 2 47 29 c64 40 105 96 134 185 20 62 24 94 24 199 0 118 -1 128 -27 172
-55 93 -121 126 -318 157 -166 27 -366 33 -510 17z m577 -62 c-3 -3 -12 -4
-19 -1 -8 3 -5 6 6 6 11 1 17 -2 13 -5z m90 -20 c-3 -3 -12 -4 -19 -1 -8 3 -5
6 6 6 11 1 17 -2 13 -5z m-61 -133 c54 -25 108 -82 122 -130 42 -139 -28 -292
-153 -334 -91 -32 -168 -16 -233 46 -54 52 -72 96 -72 179 0 62 4 80 30 124
28 51 104 117 145 127 46 11 122 6 161 -12z m-971 -40 c52 -24 80 -56 100
-111 36 -100 11 -207 -68 -289 -52 -54 -108 -80 -170 -81 -54 0 -90 15 -129
57 -62 65 -73 150 -34 259 53 145 186 218 301 165z"/>
<path d="M3475 5171 c-84 -51 -106 -148 -52 -225 45 -64 140 -70 201 -12 67
63 69 167 4 228 -37 34 -106 39 -153 9z"/>
<path d="M2535 5138 c-80 -44 -123 -139 -96 -211 38 -100 159 -103 227 -6 34
50 41 99 20 153 -24 64 -97 94 -151 64z m75 -138 c0 -13 -7 -20 -20 -20 -13 0
-20 7 -20 20 0 13 7 20 20 20 13 0 20 -7 20 -20z"/>
<path d="M3265 4583 c-38 -1 -162 -9 -275 -18 -113 -8 -257 -17 -320 -21 -128
-7 -146 -15 -156 -71 -9 -49 8 -79 48 -85 43 -7 394 8 663 27 171 13 215 19
235 34 27 20 39 60 30 106 l-5 30 -75 1 c-41 0 -106 -1 -145 -3z"/>
<path d="M2458 4163 c7 -3 16 -2 19 1 4 3 -2 6 -13 5 -11 0 -14 -3 -6 -6z"/>
<path d="M4382 5033 c-30 -28 -45 -56 -62 -108 -53 -166 -28 -475 39 -475 45
0 86 81 107 210 27 164 12 344 -31 380 -8 7 -12 16 -9 21 12 19 -7 7 -44 -28z"/>
<path d="M2159 3735 c-330 -174 -486 -241 -688 -295 l-43 -11 5 -372 c5 -408
16 -527 66 -732 41 -165 81 -271 142 -372 113 -189 261 -354 461 -518 71 -57
186 -135 201 -135 35 0 268 181 380 294 180 183 316 373 390 546 108 255 190
727 204 1177 l6 192 -39 6 c-215 37 -524 126 -812 234 -120 45 -166 43 -273
-14z m273 -21 c354 -125 494 -166 676 -201 l145 -28 -6 -170 c-13 -366 -78
-781 -161 -1037 -68 -209 -135 -325 -304 -528 -136 -162 -427 -410 -481 -410
-25 0 -214 147 -317 247 -210 204 -341 396 -407 598 -75 229 -97 405 -106 865
-4 195 -7 355 -6 356 0 0 70 24 155 53 199 68 343 131 505 219 95 52 140 72
167 72 21 0 84 -16 140 -36z"/>
<path d="M2167 3143 c-40 -37 -111 -104 -158 -150 -47 -46 -96 -91 -108 -100
-23 -15 -23 -18 -17 -137 4 -67 9 -160 13 -208 l6 -88 29 0 c23 0 48 -17 116
-83 105 -100 192 -167 218 -167 10 0 37 17 59 38 23 20 92 81 153 135 96 82
118 97 147 97 l35 0 0 224 0 224 -33 11 c-18 6 -86 56 -152 112 -139 117 -197
159 -220 159 -9 0 -48 -30 -88 -67z m253 -89 c85 -69 167 -132 183 -140 l27
-15 0 -183 c0 -102 -3 -191 -6 -199 -3 -9 -13 -13 -24 -10 -20 5 -46 -12 -115
-75 -36 -33 -162 -142 -207 -180 -22 -18 -35 -8 -195 137 -67 61 -119 101
-132 101 -16 0 -21 6 -21 28 0 15 -5 99 -10 186 l-9 160 42 35 c23 19 95 87
159 150 110 108 136 131 148 131 3 0 75 -57 160 -126z"/>
<path d="M5224 2455 c-22 -33 -14 -116 14 -153 23 -30 57 -32 78 -4 22 27 37
88 30 116 -16 63 -91 88 -122 41z m68 -22 c24 -21 23 -68 -1 -100 l-20 -24
-15 30 c-19 36 -20 52 -4 86 13 30 16 30 40 8z"/>
<path d="M3663 2185 c-104 -28 -176 -78 -219 -150 -26 -46 -41 -126 -30 -169
11 -44 26 -29 26 27 0 60 32 137 75 179 41 42 121 76 204 89 112 17 195 -1
270 -59 20 -15 53 -35 74 -44 36 -17 37 -17 27 2 -5 10 -21 27 -35 38 -13 11
-21 23 -17 27 4 5 1 5 -5 1 -7 -4 -28 4 -47 19 -68 52 -212 69 -323 40z"/>
<path d="M4860 1783 c8 -3 19 -11 23 -17 6 -7 7 -6 4 4 -2 8 -12 16 -23 17
-13 2 -15 1 -4 -4z"/>
<path d="M4698 1714 c-3 -24 -1 -31 9 -27 15 6 15 9 4 38 -7 17 -9 16 -13 -11z"/>
<path d="M4805 1590 c-4 -6 -16 -8 -28 -4 -22 6 -22 6 -2 -9 11 -9 20 -15 20
-14 1 1 7 10 14 20 7 9 11 17 8 17 -3 0 -9 -5 -12 -10z"/>
<path d="M4690 1570 c0 -5 5 -10 11 -10 5 0 7 5 4 10 -3 6 -8 10 -11 10 -2 0
-4 -4 -4 -10z"/>
<path d="M4745 1560 c3 -5 14 -10 23 -10 15 0 15 2 2 10 -20 13 -33 13 -25 0z"/>
<path d="M5236 1417 c3 -10 9 -15 12 -12 3 3 0 11 -7 18 -10 9 -11 8 -5 -6z"/>
<path d="M2641 1094 c0 -11 3 -14 6 -6 3 7 2 16 -1 19 -3 4 -6 -2 -5 -13z"/>
<path d="M4978 1103 c7 -3 16 -2 19 1 4 3 -2 6 -13 5 -11 0 -14 -3 -6 -6z"/>
<path d="M6265 3706 c-65 -16 -155 -58 -148 -69 2 -4 23 3 46 16 39 22 89 36
197 56 l45 9 -45 0 c-25 0 -68 -6 -95 -12z"/>
<path d="M6055 3609 c-12 -6 -26 -19 -33 -29 -11 -18 -9 -18 23 1 19 12 35 25
35 30 0 10 1 11 -25 -2z"/>
<path d="M0 3591 c0 -6 15 -11 33 -12 35 -1 35 -1 122 -24 159 -44 314 -164
428 -331 26 -39 47 -78 47 -87 0 -9 5 -19 10 -22 5 -3 10 -1 10 5 0 18 -57
124 -82 150 -13 14 -24 32 -26 40 -4 17 -121 130 -135 130 -4 0 -29 14 -55 32
-89 61 -201 106 -309 123 -29 4 -43 3 -43 -4z"/>
<path d="M5937 3493 c-46 -60 -82 -123 -71 -123 3 0 -1 -12 -10 -26 -10 -14
-16 -30 -14 -36 2 -6 21 25 42 68 21 43 55 100 77 127 22 26 36 47 30 47 -5 0
-30 -26 -54 -57z"/>
<path d="M5825 3244 c-7 -29 -9 -31 -34 -21 -34 13 -133 1 -157 -19 -18 -15
-18 -15 1 -7 11 4 60 8 108 8 82 0 88 1 93 22 3 12 4 28 1 35 -3 7 -8 -1 -12
-18z"/>
<path d="M5560 3168 c0 -4 -6 -8 -13 -8 -8 0 -24 -11 -37 -25 -13 -14 -19 -25
-15 -25 5 0 -1 -7 -13 -16 -23 -16 -29 -34 -11 -34 5 0 7 5 4 10 -3 6 -2 10 3
10 4 0 31 22 58 48 28 27 45 49 37 49 -7 0 -13 -4 -13 -9z"/>
<path d="M666 3070 c3 -14 11 -32 16 -40 6 -10 7 -7 2 10 -3 14 -11 32 -16 40
-6 10 -7 7 -2 -10z"/>
<path d="M5446 3034 c-9 -8 -17 -21 -17 -27 -2 -14 -5 -35 -15 -99 -4 -27 -3
-48 2 -48 5 0 10 17 11 38 2 52 9 88 27 122 16 34 15 37 -8 14z"/>
<path d="M700 2961 c0 -12 6 -21 15 -21 8 0 15 4 15 9 0 5 -7 14 -15 21 -13
10 -15 9 -15 -9z"/>
<path d="M800 2938 c3 -3 41 -10 85 -16 114 -15 184 -45 266 -114 39 -33 66
-51 61 -41 -10 18 -58 63 -67 63 -3 0 -13 8 -23 18 -35 35 -166 82 -249 88
-43 4 -76 4 -73 2z"/>
<path d="M5264 2825 c-10 -8 -14 -14 -9 -14 6 0 19 6 29 14 11 8 15 15 10 15
-6 0 -19 -7 -30 -15z"/>
<path d="M5195 2779 c-20 -18 -34 -34 -32 -36 3 -2 22 12 42 32 47 43 39 47
-10 4z"/>
</g>
</svg>
